<svg width="19" height="26" viewBox="0 0 19 26" fill="none" xmlns="http://www.w3.org/2000/svg">
<path d="M8.842 0.801998L11.062 0.838998C13.578 1.209 15.4157 2.26967 16.575 4.021C17.5617 5.501 18.166 7.33867 18.388 9.534C18.4867 10.348 18.5483 11.3593 18.573 12.568C18.5977 16.2433 18.203 18.969 17.389 20.745C17.3643 20.8437 17.3273 20.93 17.278 21.004C16.8587 21.8673 16.39 22.558 15.872 23.076C14.7127 24.3093 13.06 25.0617 10.914 25.333C10.2973 25.4317 9.508 25.444 8.546 25.37C8.44733 25.3453 8.37333 25.333 8.324 25.333C5.85733 25.037 4.032 24.0873 2.848 22.484C2.182 21.596 1.67633 20.5353 1.331 19.302C0.862333 17.7233 0.640333 15.4787 0.665 12.568C0.689667 11.3593 0.751333 10.348 0.85 9.534C1.12133 6.944 1.89833 4.88433 3.181 3.355C4.34033 1.92433 6.067 1.08567 8.361 0.838998C8.48433 0.814332 8.64467 0.801998 8.842 0.801998ZM10.174 3.096C8.916 2.874 7.89233 3.244 7.103 4.206C6.955 4.40333 6.81933 4.613 6.696 4.835C6.59733 5.057 6.511 5.52567 6.437 6.241C6.26433 8.48567 6.23967 12.346 6.363 17.822C6.38767 18.636 6.41233 19.228 6.437 19.598C6.46167 20.2393 6.53567 20.7203 6.659 21.041C7.05367 22.1017 7.78133 22.7677 8.842 23.039C9.36 23.187 9.878 23.187 10.396 23.039C11.4567 22.7677 12.1843 22.1017 12.579 21.041C12.7023 20.7203 12.7763 20.2393 12.801 19.598C12.9737 17.156 12.9983 13.271 12.875 7.943C12.8503 7.15367 12.8257 6.58633 12.801 6.241C12.727 5.52567 12.6407 5.057 12.542 4.835C12.0487 3.82367 11.2593 3.244 10.174 3.096Z" fill="black"/>
</svg>
