<svg width="19" height="26" viewBox="0 0 19 26" fill="none" xmlns="http://www.w3.org/2000/svg">
<path d="M2.774 0.838998C2.87267 0.789665 2.94667 0.764999 2.996 0.764999C3.07 0.764999 3.366 0.851333 3.884 1.024C5.68467 1.616 7.55933 1.912 9.508 1.912C11.5307 1.912 13.4177 1.60367 15.169 0.986998C15.6623 0.838999 15.9213 0.764999 15.946 0.764999C16.1927 0.764999 16.3407 0.863666 16.39 1.061C16.4393 1.11033 16.464 1.394 16.464 1.912C16.464 2.43 16.39 2.77533 16.242 2.948C16.2667 2.92333 16.1927 3.00967 16.02 3.207C15.1567 4.21833 14.1207 5.06933 12.912 5.76C11.6047 6.5 10.1863 6.981 8.657 7.203C8.31167 7.25233 7.732 7.277 6.918 7.277H5.549L5.401 7.24V9.127V11.014L5.66 10.866C6.74533 10.2247 7.94167 9.89167 9.249 9.867C11.469 9.81767 13.3437 10.2987 14.873 11.31C16.427 12.346 17.426 13.752 17.87 15.528C18.018 16.1693 18.092 16.8353 18.092 17.526C18.092 18.3647 18.0057 19.0553 17.833 19.598C17.093 22.2127 15.2307 23.964 12.246 24.852C11.358 25.1233 10.4083 25.296 9.397 25.37C7.59633 25.518 6.00533 25.259 4.624 24.593C3.41533 24.0257 2.50267 23.2363 1.886 22.225C1.146 21.041 0.924 19.857 1.22 18.673C1.24467 18.5003 1.294 18.34 1.368 18.192C1.83667 17.1807 2.65067 16.638 3.81 16.564C4.22933 16.5393 4.64867 16.5887 5.068 16.712C6.03 17.008 6.64667 17.6493 6.918 18.636C6.96733 18.932 6.992 19.2157 6.992 19.487C6.992 20.1283 6.81933 20.7203 6.474 21.263C6.20267 21.6083 5.90667 21.8673 5.586 22.04C5.48733 22.0893 5.438 22.1263 5.438 22.151L6.363 22.558C6.38767 22.5827 6.41233 22.595 6.437 22.595C7.103 22.8417 7.90467 22.928 8.842 22.854C9.82867 22.7553 10.581 22.447 11.099 21.929C11.5923 21.411 11.876 20.3997 11.95 18.895C11.95 18.3523 11.95 17.6493 11.95 16.786C11.9253 14.8867 11.8267 13.7397 11.654 13.345C11.5307 13.049 11.2717 12.7653 10.877 12.494C10.729 12.3953 10.544 12.3213 10.322 12.272C10.1247 12.198 9.804 12.161 9.36 12.161C8.102 12.161 7.066 12.4447 6.252 13.012C5.78333 13.308 5.42567 13.6533 5.179 14.048C4.93233 14.3933 4.698 14.5783 4.476 14.603C4.37733 14.6277 4.15533 14.64 3.81 14.64C3.292 14.64 2.996 14.6153 2.922 14.566C2.774 14.492 2.663 14.381 2.589 14.233C2.53967 14.1343 2.515 11.939 2.515 7.647C2.515 3.25633 2.552 1.01167 2.626 0.912999L2.774 0.838998Z" fill="#C61EB5"/>
</svg>
