<svg width="49" height="47" viewBox="0 0 49 47" fill="none" xmlns="http://www.w3.org/2000/svg">
	<circle cx="25" cy="24" r="15" fill="black" />
	<path
		d="M25.1234 3.13774L26.7019 12.9802C26.7141 13.0562 26.6554 13.125 26.5785 13.125H23.4215C23.3446 13.125 23.2859 13.0562 23.2981 12.9802L24.8766 3.13773C24.8843 3.08953 24.9027 3.0692 24.9168 3.05822C24.935 3.044 24.9641 3.03253 25 3.03253C25.0359 3.03253 25.065 3.044 25.0832 3.05822C25.0973 3.0692 25.1157 3.08954 25.1234 3.13774Z"
		fill="white" stroke="black" stroke-width="0.75" />
	<path
		d="M3.13774 23.8766L12.9802 22.2981C13.0562 22.2859 13.125 22.3446 13.125 22.4215V25.5785C13.125 25.6554 13.0562 25.7141 12.9802 25.7019L3.13773 24.1234C3.08953 24.1157 3.0692 24.0973 3.05822 24.0832C3.044 24.065 3.03253 24.0359 3.03253 24C3.03253 23.9641 3.044 23.935 3.05822 23.9168C3.0692 23.9027 3.08954 23.8843 3.13774 23.8766Z"
		fill="white" stroke="black" stroke-width="0.75" />
	<path
		d="M45.8623 24.1234L36.0198 25.7019C35.9438 25.7141 35.875 25.6554 35.875 25.5785V22.4215C35.875 22.3446 35.9438 22.2859 36.0198 22.2981L45.8623 23.8766C45.9105 23.8843 45.9308 23.9027 45.9418 23.9168C45.956 23.935 45.9675 23.9641 45.9675 24C45.9675 24.0359 45.956 24.065 45.9418 24.0832C45.9308 24.0973 45.9105 24.1157 45.8623 24.1234Z"
		fill="white" stroke="black" stroke-width="0.75" />
	<path
		d="M10.942 10.7675L19.0179 16.611C19.0802 16.6561 19.0874 16.7463 19.033 16.8007L16.8007 19.033C16.7463 19.0874 16.6561 19.0802 16.611 19.0179L10.7675 10.942C10.7389 10.9025 10.7375 10.8751 10.7397 10.8574C10.7425 10.8344 10.755 10.8058 10.7804 10.7804C10.8058 10.755 10.8344 10.7425 10.8574 10.7397C10.8751 10.7375 10.9025 10.7389 10.942 10.7675Z"
		fill="white" stroke="black" stroke-width="0.75" />
	<path
		d="M39.2325 10.942L33.389 19.0179C33.3439 19.0802 33.2537 19.0874 33.1993 19.033L30.967 16.8007C30.9126 16.7463 30.9198 16.6561 30.9821 16.611L39.058 10.7675C39.0975 10.7389 39.1249 10.7375 39.1426 10.7397C39.1656 10.7425 39.1942 10.755 39.2196 10.7804C39.245 10.8058 39.2575 10.8344 39.2603 10.8574C39.2625 10.8751 39.2611 10.9025 39.2325 10.942Z"
		fill="white" stroke="black" stroke-width="0.75" />
	<path
		d="M10.7675 36.058L16.611 27.9821C16.6561 27.9198 16.7463 27.9126 16.8007 27.967L19.033 30.1993C19.0874 30.2537 19.0802 30.3439 19.0179 30.389L10.942 36.2325C10.9025 36.2611 10.8751 36.2625 10.8574 36.2603C10.8344 36.2575 10.8057 36.245 10.7804 36.2196C10.755 36.1942 10.7425 36.1656 10.7397 36.1426C10.7375 36.1249 10.7389 36.0975 10.7675 36.058Z"
		fill="white" stroke="black" stroke-width="0.75" />
	<path
		d="M39.058 36.2325L30.9821 30.389C30.9198 30.3439 30.9126 30.2537 30.967 30.1993L33.1993 27.967C33.2537 27.9126 33.3439 27.9198 33.389 27.9821L39.2325 36.058C39.2611 36.0975 39.2625 36.1249 39.2603 36.1426C39.2575 36.1656 39.245 36.1942 39.2196 36.2196C39.1942 36.245 39.1656 36.2575 39.1426 36.2603C39.1249 36.2625 39.0975 36.2611 39.058 36.2325Z"
		fill="white" stroke="black" stroke-width="0.75" />
	<path
		d="M24.8766 43.8623L23.2981 34.0198C23.2859 33.9438 23.3446 33.875 23.4215 33.875H26.5785C26.6554 33.875 26.7141 33.9438 26.7019 34.0198L25.1234 43.8623C25.1157 43.9105 25.0973 43.9308 25.0832 43.9418C25.065 43.956 25.0359 43.9675 25 43.9675C24.9641 43.9675 24.935 43.956 24.9168 43.9418C24.9027 43.9308 24.8843 43.9105 24.8766 43.8623Z"
		fill="white" stroke="black" stroke-width="0.75" />
	<path d="M24.9761 24.0584H24.9592" stroke="white" stroke-width="5" stroke-linecap="round" />
</svg>