<svg width="17" height="25" viewBox="0 0 17 25" fill="none" xmlns="http://www.w3.org/2000/svg">
<path d="M9.803 0.801998C9.82767 0.777332 10.0373 0.764999 10.432 0.764999C10.9993 0.764999 11.3447 0.900665 11.468 1.172C11.5173 1.27066 11.542 4.82267 11.542 11.828V22.336H13.91H16.278V23.668V25H15.797L12.097 24.926C9.951 24.9013 7.81733 24.9013 5.696 24.926C3.22933 24.9753 2.00833 25 2.033 25H1.552V23.668V22.336H3.883H6.214V13.789V5.242L5.807 5.316C4.52433 5.63667 3.11833 5.797 1.589 5.797H0.96V4.465V3.133H1.589C4.35167 3.133 6.63333 2.652 8.434 1.69C9.026 1.41867 9.48233 1.12267 9.803 0.801998Z" fill="#2AD33B"/>
</svg>
