<svg width="19" height="26" viewBox="0 0 19 26" fill="none" xmlns="http://www.w3.org/2000/svg">
<path d="M7.991 0.801998H10.1C12.2213 0.949999 13.9727 1.51733 15.354 2.504C16.2667 3.21933 16.871 4.132 17.167 5.242C17.2163 5.48866 17.241 5.834 17.241 6.278C17.241 6.77133 17.2163 7.129 17.167 7.351C16.7723 9.17633 15.5883 10.6317 13.615 11.717L13.023 12.05H12.986C12.8627 12.124 12.7887 12.161 12.764 12.161L12.986 12.235L13.689 12.457C15.3663 13.0243 16.5873 13.8383 17.352 14.899C18.1413 15.935 18.5113 17.0943 18.462 18.377C18.3387 20.3503 17.5617 21.9413 16.131 23.15C14.6263 24.4573 12.579 25.1973 9.989 25.37C6.68367 25.592 4.13067 24.8027 2.33 23.002C1.59 22.262 1.09667 21.3617 0.85 20.301C0.751333 19.6103 0.763667 18.9813 0.887 18.414C1.05967 17.6987 1.42967 17.1313 1.997 16.712C2.61367 16.268 3.30433 16.046 4.069 16.046C4.83367 16.046 5.52433 16.268 6.141 16.712C6.70833 17.1313 7.07833 17.6987 7.251 18.414C7.30033 18.5867 7.325 18.8827 7.325 19.302C7.325 19.746 7.30033 20.0667 7.251 20.264C7.029 21.004 6.59733 21.6083 5.956 22.077L5.734 22.225L6.03 22.336C6.474 22.5333 6.89333 22.6567 7.288 22.706C8.20067 22.9033 8.96533 22.9403 9.582 22.817C10.174 22.6937 10.655 22.4223 11.025 22.003C11.4937 21.485 11.765 20.671 11.839 19.561V16.601C11.7403 15.0717 11.21 14.0727 10.248 13.604C9.82867 13.4067 9.23667 13.2957 8.472 13.271C8.37333 13.271 8.18833 13.271 7.917 13.271C6.97967 13.271 6.437 13.2463 6.289 13.197C6.141 13.0737 6.067 12.716 6.067 12.124C6.067 11.532 6.141 11.199 6.289 11.125C6.41233 11.051 6.77 11.0017 7.362 10.977C8.20067 10.9277 8.75567 10.8413 9.027 10.718C10.211 10.2493 10.9387 9.09 11.21 7.24C11.3087 6.59867 11.3087 5.84633 11.21 4.983C11.0867 4.095 10.5933 3.51533 9.73 3.244C9.582 3.19467 9.286 3.17 8.842 3.17C8.25 3.17 7.732 3.244 7.288 3.392L6.326 3.799L6.548 3.947C7.23867 4.317 7.695 4.909 7.917 5.723C7.96633 5.89567 7.991 6.19167 7.991 6.611C7.991 7.00567 7.96633 7.30167 7.917 7.499C7.547 8.73233 6.70833 9.423 5.401 9.571C5.27767 9.59567 5.142 9.608 4.994 9.608C3.63733 9.608 2.7 9.016 2.182 7.832C2.13267 7.73333 2.09567 7.62233 2.071 7.499C2.02167 7.30167 1.997 6.981 1.997 6.537C1.997 6.093 2.02167 5.76 2.071 5.538C2.19433 4.89667 2.45333 4.28 2.848 3.688C3.78533 2.23267 5.30233 1.30767 7.399 0.912999C7.59633 0.863665 7.79367 0.826665 7.991 0.801998Z" fill="#800CF4"/>
</svg>
