<svg width="19" height="26" viewBox="0 0 19 26" fill="none" xmlns="http://www.w3.org/2000/svg">
<path d="M11.136 0.801998H12.764C14.096 0.949999 15.169 1.431 15.983 2.245C16.8463 3.10833 17.315 4.23067 17.389 5.612C17.4137 6.278 17.2903 6.87 17.019 7.388C16.797 7.80733 16.4517 8.128 15.983 8.35C15.5883 8.54733 15.132 8.646 14.614 8.646C14.096 8.646 13.6397 8.54733 13.245 8.35C12.7763 8.128 12.431 7.80733 12.209 7.388C11.7403 6.54933 11.691 5.649 12.061 4.687C12.1103 4.58833 12.1597 4.502 12.209 4.428C12.505 4.00867 12.801 3.71267 13.097 3.54L13.319 3.429L13.245 3.355L12.838 3.244C12.394 3.12067 11.7773 3.10833 10.988 3.207C10.2233 3.355 9.55733 3.62633 8.99 4.021C8.34867 4.391 7.86767 4.909 7.547 5.575C7.103 6.41367 6.844 7.85667 6.77 9.904V10.755L6.733 10.903L6.955 10.644C7.695 9.904 8.509 9.423 9.397 9.201C9.86567 9.10233 10.47 9.06533 11.21 9.09C12.912 9.164 14.355 9.66967 15.539 10.607C17.019 11.7663 17.9193 13.197 18.24 14.899C18.388 15.5157 18.4497 16.268 18.425 17.156C18.425 18.1427 18.351 18.9567 18.203 19.598C17.833 21.1273 16.9573 22.447 15.576 23.557C14.4413 24.4943 13.0477 25.0863 11.395 25.333C10.5317 25.4317 9.56967 25.444 8.509 25.37C8.435 25.3453 8.37333 25.333 8.324 25.333C5.83267 24.963 4.00733 23.8653 2.848 22.04C1.46667 19.9433 0.776 17.008 0.776 13.234C0.776 11.9513 0.874667 10.8043 1.072 9.793C1.442 8.14033 2.04633 6.66033 2.885 5.353C4.291 3.207 6.30133 1.81333 8.916 1.172C9.582 0.999332 10.322 0.875999 11.136 0.801998ZM10.951 11.421L10.1 11.347C9.55733 11.347 9.11333 11.4333 8.768 11.606C7.78133 12.0747 7.15233 13.271 6.881 15.195C6.78233 16.0337 6.74533 17.1437 6.77 18.525C6.79467 20.005 6.881 20.893 7.029 21.189C7.473 22.151 8.18833 22.706 9.175 22.854C9.49567 22.9033 9.89033 22.9033 10.359 22.854C11.025 22.78 11.543 22.558 11.913 22.188C12.209 21.892 12.3693 21.4727 12.394 20.93C12.4187 20.7327 12.4433 20.3873 12.468 19.894L12.431 13.123C12.431 13.049 12.431 12.9997 12.431 12.975C12.4063 12.6297 12.2583 12.309 11.987 12.013C11.7157 11.7417 11.3703 11.5443 10.951 11.421Z" fill="#820E0E"/>
</svg>
