<svg width="19" height="27" viewBox="0 0 19 27" fill="none" xmlns="http://www.w3.org/2000/svg">
<path d="M1.663 1.136V0.987998H2.995H4.327V1.099C4.327 1.29633 4.42567 1.469 4.623 1.617C4.919 1.81433 5.41233 1.92533 6.103 1.95C7.97767 2.098 10.765 2.172 14.465 2.172H18.646V3.245C18.646 3.96033 18.6213 4.355 18.572 4.429C18.5227 4.52767 17.5853 5.60067 15.76 7.648C13.8113 9.81867 12.8247 10.9287 12.8 10.978C11.616 12.458 10.8637 14.4437 10.543 16.935C10.3457 18.1437 10.2347 19.9073 10.21 22.226C10.1853 23.632 10.1113 24.483 9.988 24.779C9.988 24.8037 9.96333 24.853 9.914 24.927C9.71667 25.297 9.44533 25.6177 9.1 25.889C8.138 26.555 7.139 26.629 6.103 26.111C5.97967 26.037 5.86867 25.963 5.77 25.889C5.42467 25.6177 5.15333 25.297 4.956 24.927C4.75867 24.5323 4.67233 23.9897 4.697 23.299C4.697 22.3123 4.808 21.2763 5.03 20.191C5.35067 18.5383 5.918 16.9103 6.732 15.307C7.37333 13.9997 8.15033 12.7417 9.063 11.533C9.581 10.867 10.3333 9.979 11.32 8.869L12.319 7.722H10.21C6.33733 7.722 4.253 7.78367 3.957 7.907C3.71033 8.055 3.50067 8.58533 3.328 9.498C3.13067 10.386 3.032 10.978 3.032 11.274C3.032 11.2987 2.588 11.311 1.7 11.311H0.368V11.163C0.343333 11.2123 0.565333 9.535 1.034 6.131C1.45333 2.82567 1.663 1.16067 1.663 1.136Z" fill="#F75814"/>
</svg>
