<svg width="18" height="25" viewBox="0 0 18 25" fill="none" xmlns="http://www.w3.org/2000/svg">
<path d="M7.139 0.801998L9.618 0.838998C11.7147 1.135 13.4167 1.85033 14.724 2.985C16.3273 4.34167 17.129 6.093 17.129 8.239C17.129 9.867 16.389 11.384 14.909 12.79C14.4157 13.2587 13.4043 14.0233 11.875 15.084C10.839 15.7747 9.59333 16.6997 8.138 17.859L6.177 19.413L7.99 19.45C11.3693 19.45 13.2193 19.3883 13.54 19.265C13.7373 19.191 13.947 18.71 14.169 17.822L14.465 15.898C14.465 15.8733 14.909 15.861 15.797 15.861H17.129V16.009C17.1043 16.0583 16.907 17.526 16.537 20.412C16.2163 23.2487 16.0313 24.7287 15.982 24.852V25H8.027H0.109V23.89C0.109 23.1253 0.121333 22.706 0.146 22.632C0.195333 22.5333 1.39167 21.3123 3.735 18.969C6.74433 15.8857 8.471 14.048 8.915 13.456C8.989 13.382 9.07533 13.271 9.174 13.123C9.86467 12.2597 10.3457 11.4333 10.617 10.644C10.913 9.85467 11.061 9.053 11.061 8.239C11.061 7.647 10.9747 7.055 10.802 6.463C10.136 4.71167 8.82867 3.71267 6.88 3.466C6.70733 3.44133 6.547 3.429 6.399 3.429C5.733 3.429 5.363 3.466 5.289 3.54L5.511 3.799C6.103 4.44033 6.38667 5.205 6.362 6.093C6.288 7.62233 5.52333 8.59667 4.068 9.016C3.87067 9.06533 3.59933 9.09 3.254 9.09C2.884 9.09 2.60033 9.06533 2.403 9.016C1.24367 8.67067 0.516 7.95533 0.22 6.87C0.170667 6.69733 0.146 6.389 0.146 5.945C0.146 5.52567 0.183 5.18033 0.257 4.909C0.454334 4.169 0.799667 3.55233 1.293 3.059C1.78633 2.541 2.41533 2.097 3.18 1.727C3.92 1.38167 4.74633 1.135 5.659 0.986998C5.85633 0.937666 6.34967 0.875999 7.139 0.801998Z" fill="#1D47DC"/>
</svg>
