<svg width="20" height="25" viewBox="0 0 20 25" fill="none" xmlns="http://www.w3.org/2000/svg">
<path d="M12.949 0.801998C13.2203 0.678665 13.9603 0.653999 15.169 0.727999C15.3663 0.752666 15.4897 0.777332 15.539 0.801998C15.687 0.851333 15.798 0.949999 15.872 1.098C15.9213 1.19667 15.946 3.81133 15.946 8.942V16.638H17.5H19.054V17.97V19.302H17.5H15.946V20.819V22.336H17.5H19.054V23.668V25H18.647C18.6717 25 17.6973 24.9753 15.724 24.926C14.022 24.9013 12.172 24.9013 10.174 24.926L6.733 25H6.252V23.668V22.336H8.324H10.396V20.819V19.302H5.29H0.184V17.97V16.638L6.326 8.905C10.5193 3.67567 12.6283 1.04867 12.653 1.024C12.7517 0.875999 12.8503 0.801998 12.949 0.801998ZM10.803 16.638V11.902V7.203L7.029 11.902L3.292 16.601L7.029 16.638H10.803Z" fill="#E89416"/>
</svg>
