<svg width="19" height="26" viewBox="0 0 19 26" fill="none" xmlns="http://www.w3.org/2000/svg">
<path d="M8.805 0.801998H10.692C12.6653 0.949999 14.2193 1.468 15.354 2.356C16.316 3.12067 16.9203 4.10733 17.167 5.316C17.315 5.93267 17.3397 6.54933 17.241 7.166C17.0683 8.74467 16.2173 10.0397 14.688 11.051L14.392 11.273L14.688 11.458C15.7733 12.124 16.6613 12.975 17.352 14.011C18.1413 15.2443 18.5113 16.5887 18.462 18.044C18.388 19.5733 17.981 20.8807 17.241 21.966C16.3037 23.372 14.8853 24.371 12.986 24.963C12.024 25.2343 10.8893 25.37 9.582 25.37C7.954 25.37 6.548 25.1727 5.364 24.778C2.65067 23.8653 1.13367 22.1387 0.813 19.598C0.788333 19.302 0.776 19.006 0.776 18.71C0.776 16.3913 1.923 14.5167 4.217 13.086C4.48833 12.938 4.63633 12.8517 4.661 12.827L4.291 12.494C3.20567 11.606 2.49033 10.4713 2.145 9.09C1.75033 7.51133 1.91067 5.982 2.626 4.502C3.662 2.356 5.61067 1.135 8.472 0.838998C8.59533 0.814332 8.70633 0.801998 8.805 0.801998ZM10.285 3.17C9.545 3.096 8.79267 3.133 8.028 3.281C6.59733 3.47833 5.808 4.07033 5.66 5.057C5.63533 5.205 5.63533 5.36533 5.66 5.538C5.734 6.08067 6.05467 6.52467 6.622 6.87C6.77 7.018 7.67033 7.536 9.323 8.424C10.951 9.36133 11.7773 9.83 11.802 9.83L12.616 9.09C12.8873 8.794 13.097 8.461 13.245 8.091C13.4423 7.67167 13.541 7.14133 13.541 6.5C13.541 5.88333 13.43 5.36533 13.208 4.946C12.9613 4.428 12.616 4.04567 12.172 3.799C11.6293 3.45367 11.0003 3.244 10.285 3.17ZM10.063 15.935L7.288 14.381C7.14 14.381 6.85633 14.6153 6.437 15.084C5.67233 15.7993 5.179 16.6873 4.957 17.748C4.85833 18.2907 4.85833 18.895 4.957 19.561C5.08033 20.2517 5.30233 20.7943 5.623 21.189C5.96833 21.6577 6.44933 22.04 7.066 22.336C7.584 22.5827 8.065 22.743 8.509 22.817C9.05167 22.9157 9.767 22.928 10.655 22.854C10.729 22.8293 10.7907 22.817 10.84 22.817C12.7887 22.5703 13.9357 21.8057 14.281 20.523C14.355 20.1777 14.3673 19.783 14.318 19.339C14.1453 18.6483 13.7013 18.0563 12.986 17.563L10.063 15.935Z" fill="#FF0000"/>
</svg>
